<?xml version="1.0" encoding="UTF-8" standalone="no"?>
<svg
   id="Layer_1"
   style="enable-background:new 0 0 128 128;"
   version="1.1"
   viewBox="0 0 128 128"
   xml:space="preserve"
   sodipodi:docname="appicon.svg"
   inkscape:version="1.2.2 (732a01da63, 2022-12-09)"
   xmlns:inkscape="http://www.inkscape.org/namespaces/inkscape"
   xmlns:sodipodi="http://sodipodi.sourceforge.net/DTD/sodipodi-0.dtd"
   xmlns="http://www.w3.org/2000/svg"
   xmlns:svg="http://www.w3.org/2000/svg"><defs
     id="defs199" /><sodipodi:namedview
     id="namedview197"
     pagecolor="#505050"
     bordercolor="#ffffff"
     borderopacity="1"
     inkscape:showpageshadow="0"
     inkscape:pageopacity="0"
     inkscape:pagecheckerboard="1"
     inkscape:deskcolor="#505050"
     showgrid="false"
     inkscape:zoom="4.2868349"
     inkscape:cx="83.744769"
     inkscape:cy="58.784629"
     inkscape:window-width="1920"
     inkscape:window-height="974"
     inkscape:window-x="-11"
     inkscape:window-y="-11"
     inkscape:window-maximized="1"
     inkscape:current-layer="Layer_1" /><style
     type="text/css"
     id="style116">
	.st0{opacity:0.2;fill:#FFFFFF;}
	.st1{fill:#FFFFFF;}
	.st2{fill:none;stroke:#242C88;stroke-width:2;stroke-linecap:round;stroke-linejoin:round;stroke-miterlimit:10;}
	.st3{fill:#5E61A3;}
	.st4{opacity:0.5;fill:#242C88;}
	.st5{fill:#39C89A;}
	.st6{fill:#CAEAFB;}
	.st7{fill:#589FFF;}
	.st8{fill:#FF5751;}
	.st9{fill:#BC8D66;}
	.st10{opacity:0.7;fill:#FFFFFF;}
	.st11{fill:#F1C92A;}
	.st12{opacity:0.4;fill:none;stroke:#FFFFFF;stroke-width:2;stroke-linecap:round;stroke-linejoin:round;stroke-miterlimit:10;}
	.st13{fill:#F3877E;}
	.st14{fill:#83D689;}
	.st15{opacity:0.4;fill:#242C88;}
	.st16{opacity:0.2;fill:#242C88;}
	
		.st17{fill:none;stroke:#FFFFFF;stroke-width:3;stroke-linecap:round;stroke-linejoin:round;stroke-miterlimit:10;stroke-dasharray:0.1,6;}
	.st18{fill:#FFC408;}
	
		.st19{opacity:0.4;fill:none;stroke:#FFFFFF;stroke-width:3;stroke-linecap:round;stroke-linejoin:round;stroke-miterlimit:10;stroke-dasharray:0.1,6;}
	.st20{fill:none;stroke:#CAEAFB;stroke-width:12;stroke-linecap:round;stroke-miterlimit:10;}
	.st21{fill:none;stroke:#CAEAFB;stroke-width:7;stroke-linecap:round;stroke-miterlimit:10;}
	.st22{opacity:0.4;fill:none;stroke:#242C88;stroke-width:2;stroke-linecap:round;stroke-linejoin:round;stroke-miterlimit:10;}
	.st23{opacity:0.5;}
	.st24{fill:#242C88;}
	
		.st25{fill:none;stroke:#242C88;stroke-width:3;stroke-linecap:round;stroke-linejoin:round;stroke-miterlimit:10;stroke-dasharray:0.1,6;}
	.st26{opacity:0.5;fill:#FFFFFF;}
	.st27{fill:none;stroke:#FFFFFF;stroke-width:3;stroke-linecap:round;stroke-linejoin:round;stroke-miterlimit:10;}
	.st28{fill:none;stroke:#FFFFFF;stroke-width:2;stroke-linecap:round;stroke-linejoin:round;stroke-miterlimit:10;}
	.st29{fill:#E5BD9E;}
	.st30{fill:#A06D47;}
	
		.st31{opacity:0.3;fill:none;stroke:#FFFFFF;stroke-width:3;stroke-linecap:round;stroke-linejoin:round;stroke-miterlimit:10;stroke-dasharray:0.1,6;}
	.st32{opacity:0.1;fill:#242C88;}
	.st33{opacity:0.5;fill:#FF5751;}
	.st34{opacity:0.2;fill:none;stroke:#242C88;stroke-width:2;stroke-linecap:round;stroke-linejoin:round;stroke-miterlimit:10;}
	.st35{opacity:0.3;clip-path:url(#SVGID_2_);}
	
		.st36{fill:none;stroke:#FFFFFF;stroke-width:3;stroke-linecap:round;stroke-linejoin:round;stroke-miterlimit:10;stroke-dasharray:0,6;}
	
		.st37{opacity:0.3;fill:none;stroke:#FFFFFF;stroke-width:3;stroke-linecap:round;stroke-linejoin:round;stroke-miterlimit:10;stroke-dasharray:0,6;}
	.st38{clip-path:url(#SVGID_4_);}
	.st39{opacity:0.2;fill:none;stroke:#242C88;stroke-width:9;stroke-linecap:round;stroke-linejoin:round;stroke-miterlimit:10;}
	.st40{opacity:0.3;}
	.st41{opacity:0.4;fill:#FFFFFF;}
	.st42{opacity:0.5;fill:#CAEAFB;}
	.st43{opacity:0.6;fill:#242C88;}
	.st44{opacity:0.5;fill:none;stroke:#242C88;stroke-width:2;stroke-linecap:round;stroke-linejoin:round;stroke-miterlimit:10;}
	.st45{opacity:0.3;fill:#242C88;}
	.st46{opacity:0.2;}
	
		.st47{clip-path:url(#SVGID_6_);fill:none;stroke:#242C88;stroke-width:2;stroke-linecap:round;stroke-linejoin:round;stroke-miterlimit:10;}
	.st48{opacity:0.2;fill:none;stroke:#FFFFFF;stroke-width:8;stroke-linecap:round;stroke-linejoin:round;stroke-miterlimit:10;}
	.st49{clip-path:url(#SVGID_8_);fill:#FFFFFF;}
	
		.st50{clip-path:url(#SVGID_8_);fill:none;stroke:#242C88;stroke-width:2;stroke-linecap:round;stroke-linejoin:round;stroke-miterlimit:10;}
	.st51{opacity:0.2;clip-path:url(#SVGID_8_);fill:#242C88;}
	
		.st52{opacity:0.2;clip-path:url(#SVGID_8_);fill:none;stroke:#242C88;stroke-width:2;stroke-linecap:round;stroke-linejoin:round;stroke-miterlimit:10;}
	.st53{fill:none;stroke:#242C88;stroke-width:1.848;stroke-linecap:round;stroke-linejoin:round;stroke-miterlimit:10;}
	.st54{opacity:0.4;fill:none;stroke:#FFFFFF;stroke-width:7;stroke-linecap:round;stroke-linejoin:round;stroke-miterlimit:10;}
	.st55{opacity:0.2;fill:none;stroke:#242C88;stroke-width:7;stroke-linecap:round;stroke-linejoin:round;stroke-miterlimit:10;}
	.st56{opacity:7.000000e-02;fill:#242C88;}
	.st57{fill:none;stroke:#FFFFFF;stroke-width:4;stroke-linecap:round;stroke-linejoin:round;stroke-miterlimit:10;}
	.st58{opacity:0.4;fill:none;stroke:#FFFFFF;stroke-width:8;stroke-linecap:round;stroke-linejoin:round;stroke-miterlimit:10;}
	.st59{opacity:0.2;fill:none;stroke:#242C88;stroke-width:8;stroke-linecap:round;stroke-linejoin:round;stroke-miterlimit:10;}
	.st60{fill:none;stroke:#FF5751;stroke-width:4;stroke-linecap:round;stroke-linejoin:round;stroke-miterlimit:10;}
	.st61{fill:none;stroke:#242C88;stroke-width:4;stroke-linecap:round;stroke-linejoin:round;stroke-miterlimit:10;}
</style><rect
     class="st1"
     height="113.4909"
     width="93.142494"
     x="4.0333362"
     y="9.3784695"
     id="rect136"
     style="stroke-width:1.36855" /><rect
     class="st2"
     height="113.4909"
     width="93.142494"
     x="4.0333362"
     y="9.3784695"
     id="rect138" /><line
     class="st34"
     x1="47.865097"
     x2="64.302017"
     y1="42.195118"
     y2="42.195118"
     id="line140" /><line
     class="st34"
     x1="47.865097"
     x2="80.738922"
     y1="35.358315"
     y2="35.358315"
     id="line142" /><path
     class="st14"
     d="M 35.537413,49.03192 H 21.839988 c -1.506717,0 -2.739486,-1.230626 -2.739486,-2.73472 V 32.623595 c 0,-1.504096 1.232769,-2.73472 2.739486,-2.73472 h 13.697425 c 1.506716,0 2.739486,1.230624 2.739486,2.73472 V 46.2972 c 0,1.504094 -1.23277,2.73472 -2.739486,2.73472 z"
     id="path144"
     style="stroke-width:1.36855" /><polyline
     class="st2"
     points="45.3,51.7 48.2,54.4 53.9,48.6 "
     id="polyline146"
     transform="matrix(1.3697425,0,0,1.3673603,-38.428682,-30.27498)" /><line
     class="st34"
     x1="47.865097"
     x2="64.302017"
     y1="70.909691"
     y2="70.909691"
     id="line148" /><line
     class="st34"
     x1="47.865097"
     x2="80.738922"
     y1="62.705524"
     y2="62.705524"
     id="line150" /><path
     class="st14"
     d="M 35.537413,76.379125 H 21.839988 c -1.506717,0 -2.739486,-1.230623 -2.739486,-2.73472 V 59.970802 c 0,-1.504098 1.232769,-2.734721 2.739486,-2.734721 h 13.423477 c 1.643691,0 3.013434,1.367361 3.013434,3.008192 v 13.400132 c 0,1.504097 -1.23277,2.73472 -2.739486,2.73472 z"
     id="path152"
     style="stroke-width:1.36855" /><polyline
     class="st2"
     points="45.3,71.9 48.2,74.6 53.9,68.9 "
     id="polyline154"
     transform="matrix(1.3697425,0,0,1.3673603,-38.428682,-30.27498)" /><line
     class="st34"
     x1="47.865097"
     x2="64.302017"
     y1="98.256889"
     y2="98.256889"
     id="line156" /><line
     class="st34"
     x1="47.865097"
     x2="80.738922"
     y1="91.420082"
     y2="91.420082"
     id="line158" /><path
     class="st14"
     d="M 35.537413,103.72633 H 21.839988 c -1.506717,0 -2.739486,-1.23063 -2.739486,-2.73472 V 87.318008 c 0,-1.504097 1.232769,-2.734721 2.739486,-2.734721 h 13.697425 c 1.506716,0 2.739486,1.230624 2.739486,2.734721 v 13.673602 c 0,1.50409 -1.23277,2.73472 -2.739486,2.73472 z"
     id="path160"
     style="stroke-width:1.36855" /><path
     class="st2"
     d="M 35.537413,49.03192 H 21.839988 c -1.506717,0 -2.739486,-1.230626 -2.739486,-2.73472 V 32.623595 c 0,-1.504096 1.232769,-2.73472 2.739486,-2.73472 h 13.697425 c 1.506716,0 2.739486,1.230624 2.739486,2.73472 V 46.2972 c 0,1.504094 -1.23277,2.73472 -2.739486,2.73472 z"
     id="path162" /><path
     class="st2"
     d="M 35.537413,76.379125 H 21.839988 c -1.506717,0 -2.739486,-1.230623 -2.739486,-2.73472 V 59.970802 c 0,-1.504098 1.232769,-2.734721 2.739486,-2.734721 h 13.423477 c 1.643691,0 3.013434,1.367361 3.013434,3.008192 v 13.400132 c 0,1.504097 -1.23277,2.73472 -2.739486,2.73472 z"
     id="path164" /><path
     class="st2"
     d="M 35.537413,103.72633 H 21.839988 c -1.506717,0 -2.739486,-1.23063 -2.739486,-2.73472 V 87.318008 c 0,-1.504097 1.232769,-2.734721 2.739486,-2.734721 h 13.697425 c 1.506716,0 2.739486,1.230624 2.739486,2.734721 v 13.673602 c 0,1.50409 -1.23277,2.73472 -2.739486,2.73472 z"
     id="path166" /><polygon
     class="st16"
     points="99,57.6 65.2,77.5 53.6,94.9 74.4,93.1 99,78.6 "
     id="polygon168"
     transform="matrix(1.3697425,0,0,1.3673603,-38.428682,-30.27498)" /><g
     id="g194"
     transform="matrix(1.3697425,0,0,1.3673603,-38.428682,-30.27498)"><polygon
       class="st1"
       points="111.4,50.1 73.8,87.7 54.1,94.6 61,74.9 98.6,37.3 "
       id="polygon170" /><rect
       class="st18"
       height="18.1"
       transform="matrix(0.7071,-0.7071,0.7071,0.7071,-18.9596,79.2808)"
       width="53.200001"
       x="59.599998"
       y="53.5"
       id="rect172" /><rect
       class="st16"
       height="5.3000002"
       transform="matrix(0.7071,-0.7071,0.7071,0.7071,-20.8293,83.7946)"
       width="53.200001"
       x="64.099998"
       y="64.400002"
       id="rect174" /><polygon
       class="st3"
       points="54.1,94.4 62.5,91.4 57.1,86 "
       id="polygon176" /><polygon
       class="st2"
       points="111.4,50.1 73.8,87.7 54.1,94.6 61,74.9 98.6,37.3 "
       id="polygon178" /><path
       class="st13"
       d="m 111.4,50.1 6,-6 c 1.7,-1.7 1.7,-4.4 0,-6 l -6.8,-6.8 c -1.7,-1.7 -4.4,-1.7 -6,0 l -6,6 z"
       id="path180" /><path
       class="st2"
       d="m 111.4,50.1 6,-6 c 1.7,-1.7 1.7,-4.4 0,-6 l -6.8,-6.8 c -1.7,-1.7 -4.4,-1.7 -6,0 l -6,6 z"
       id="path182" /><line
       class="st2"
       x1="80.599998"
       x2="106.9"
       y1="73.400002"
       y2="47.099998"
       id="line184" /><line
       class="st2"
       x1="70"
       x2="76.099998"
       y1="84"
       y2="77.900002"
       id="line186" /><rect
       class="st1"
       height="18.1"
       transform="matrix(0.7071,-0.7071,0.7071,0.7071,-0.5282,86.9153)"
       width="7.4000001"
       x="100.9"
       y="35.099998"
       id="rect188" /><rect
       class="st16"
       height="18.1"
       transform="matrix(0.7071,-0.7071,0.7071,0.7071,-0.5282,86.9153)"
       width="7.4000001"
       x="100.9"
       y="35.099998"
       id="rect190" /><rect
       class="st2"
       height="18.1"
       transform="matrix(0.7071,-0.7071,0.7071,0.7071,-0.5282,86.9153)"
       width="7.4000001"
       x="100.9"
       y="35.099998"
       id="rect192" /></g></svg>
